<svg xmlns="http://www.w3.org/2000/svg" width="80" height="80" viewBox="0 0 24 24" fill="none" stroke="#005a9c" stroke-width="1.5" stroke-linecap="round" stroke-linejoin="round">
  <path d="M18.5 14.5C18.5 14.5 21 16.5 21 20.5L18 22"></path>
  <path d="M12 22V17"></path>
  <path d="M12 17H5.5A4.5 4.5 0 0 1 1 12.5V11.5A4.5 4.5 0 0 1 5.5 7H6"></path>
  <path d="M12 17C12 14.5 14 12.5 14 10C14 7.5 12 2 12 2C12 2 10 7.5 10 10C10 12.5 12 14.5 12 17Z"></path>
  <path d="M6 7V6.5C6 4.5 7.5 3 9.5 3C11.5 3 13 4.5 13 6.5V7"></path>
</svg>