<?xml version="1.0" standalone="no"?>
<!DOCTYPE svg PUBLIC "-//W3C//DTD SVG 20010904//EN"
 "http://www.w3.org/TR/2001/REC-SVG-20010904/DTD/svg10.dtd">
<svg version="1.0" xmlns="http://www.w3.org/2000/svg"
 width="300.000000pt" height="225.000000pt" viewBox="0 0 300.000000 225.000000"
 preserveAspectRatio="xMidYMid meet">
<metadata>
Created by potrace 1.10, written by Peter Selinger 2001-2011
</metadata>
<g transform="translate(0.000000,225.000000) scale(0.100000,-0.100000)"
fill="#000000" stroke="none">
<path d="M1180 1964 c-19 -2 -87 -9 -150 -15 -215 -20 -513 -84 -705 -151 -49
-17 -92 -33 -94 -34 -2 -2 30 -42 70 -90 41 -47 89 -105 107 -129 l32 -42 68
24 c69 25 242 71 371 97 59 12 77 13 83 3 11 -17 10 -65 -2 -88 -14 -26 11
-75 44 -83 48 -12 132 15 122 40 -3 8 1 14 9 14 8 0 15 6 15 14 0 21 23 26 42
8 16 -14 16 -16 -5 -32 -12 -9 -30 -19 -39 -23 -22 -8 -25 -69 -4 -86 16 -14
29 -81 31 -166 l1 -60 -105 -44 c-58 -25 -145 -63 -192 -85 l-86 -41 62 -108
c35 -60 66 -111 69 -114 3 -3 49 22 103 55 120 74 367 196 385 189 8 -3 3 -9
-13 -15 -37 -15 -41 -31 -46 -167 -4 -87 -1 -138 11 -187 71 -303 336 -486
672 -464 211 14 349 71 474 196 87 87 131 158 171 272 57 167 56 368 -2 544
l-31 91 -54 6 c-136 14 -238 132 -265 307 -6 41 -14 82 -18 89 -4 8 -51 40
-104 70 -92 53 -113 71 -84 71 6 0 32 11 57 24 25 13 51 21 58 19 6 -3 12 0
12 6 0 6 9 11 19 11 11 0 21 4 23 8 4 11 68 24 68 14 0 -4 -7 -28 -15 -54 -8
-27 -11 -48 -7 -48 4 0 5 -29 4 -65 -8 -143 39 -288 115 -356 141 -127 333
-66 333 106 0 38 -5 52 -29 76 -16 16 -37 29 -46 29 -14 0 -16 -7 -10 -41 18
-106 0 -151 -66 -169 -145 -39 -269 98 -284 314 l-5 71 14 -61 c19 -82 48
-137 102 -191 39 -38 49 -44 81 -41 49 4 61 26 44 80 -8 24 -14 60 -15 81 -1
33 -4 37 -28 37 -39 0 -42 -14 -12 -66 24 -41 25 -47 11 -61 -33 -33 -109 24
-147 110 -18 41 -44 196 -35 206 2 2 10 -12 18 -31 20 -47 101 -116 151 -128
23 -6 49 -15 59 -20 9 -6 39 -18 65 -26 97 -33 162 -101 162 -171 0 -78 -55
-166 -120 -193 -17 -7 -29 -15 -26 -17 2 -3 24 4 49 15 122 54 152 223 57 321
-27 28 -57 45 -106 61 -184 61 -294 152 -294 244 0 30 -5 32 -26 11 -20 -20
-35 -19 -27 1 6 16 -2 13 -173 -73 l-71 -36 -79 31 c-99 38 -263 78 -374 92
-91 12 -392 21 -450 14z m335 -38 c90 -6 222 -23 234 -30 3 -2 24 -7 46 -10
73 -12 306 -97 378 -139 88 -51 104 -64 124 -101 l15 -29 -27 21 c-15 12 -39
22 -53 22 -16 0 -36 11 -51 29 -29 33 -213 120 -270 128 -20 2 -58 14 -84 24
-62 26 -123 23 -120 -6 1 -11 0 -14 -3 -7 -3 6 -10 9 -16 6 -5 -3 -22 6 -38
21 -43 41 -84 43 -121 5 -25 -25 -30 -37 -27 -65 2 -18 1 -32 -3 -29 -4 2 -13
-12 -20 -31 -7 -19 -15 -35 -19 -35 -3 0 -22 31 -43 69 -63 117 -131 152 -189
97 -19 -16 -30 -20 -42 -14 -31 17 -76 16 -158 -4 -80 -19 -128 -47 -128 -74
0 -20 22 -64 32 -64 5 0 1 11 -7 24 -12 18 -13 30 -6 50 6 14 13 26 17 26 3 0
3 -7 0 -16 -6 -15 21 -75 37 -82 10 -5 9 -32 -2 -32 -5 0 -12 6 -15 13 -3 6
-4 0 -1 -15 5 -26 3 -28 -27 -29 -49 0 -306 -56 -358 -77 -8 -3 -19 -6 -25 -7
-5 0 -25 -7 -43 -14 -29 -12 -35 -12 -53 5 -37 33 -149 171 -149 183 0 36 388
134 675 172 79 10 414 27 440 22 6 -1 51 -4 100 -7z m-178 -88 c12 -13 40 -57
63 -100 45 -84 60 -101 83 -93 14 6 67 128 81 188 8 33 35 36 63 5 11 -13 33
-57 48 -98 16 -41 34 -82 41 -90 21 -27 25 -67 8 -81 -14 -11 -19 -9 -36 14
-18 25 -25 27 -87 27 -55 0 -71 -4 -86 -20 -27 -30 -45 -25 -45 11 0 27 -2 30
-15 19 -22 -18 -97 -30 -112 -18 -9 7 -9 14 0 28 16 27 4 34 -39 23 -38 -8
-59 -33 -30 -33 26 0 18 -30 -10 -40 -59 -23 -102 -4 -67 30 20 18 63 165 63
213 0 13 3 27 7 30 14 14 50 6 70 -15z m-163 -9 c31 -15 50 -59 41 -98 -8 -36
-48 -71 -81 -71 -32 0 -33 -41 -2 -69 17 -17 19 -23 8 -35 -12 -16 -70 -36
-102 -36 -19 0 -26 34 -9 44 8 6 -19 172 -33 194 -4 7 -14 12 -22 12 -25 0
-15 29 14 36 15 3 50 12 77 19 64 17 79 17 109 4z m647 -15 c22 -11 28 -20 24
-33 -6 -20 13 -71 26 -71 15 0 30 40 24 60 -5 16 -2 20 17 20 13 0 33 -6 43
-14 19 -13 18 -15 -16 -53 -19 -21 -50 -60 -67 -86 -50 -72 -113 -77 -120 -8
-4 41 23 54 47 22 9 -12 19 -19 22 -16 7 6 -70 158 -83 163 -4 2 -8 10 -8 18
0 19 53 18 91 -2z m262 -94 c63 -29 78 -40 82 -62 13 -56 -28 -67 -50 -14 -8
18 -21 36 -30 40 -23 8 -48 -55 -49 -122 0 -52 -1 -53 -26 -47 -33 8 -82 37
-87 51 -2 6 5 14 16 17 24 6 63 122 50 148 -8 16 -1 32 11 27 4 -2 41 -19 83
-38z m-338 -7 c5 -18 3 -22 -9 -17 -9 3 -16 18 -16 32 0 29 14 20 25 -15z
m164 -122 c-6 -17 -9 -37 -6 -45 6 -15 -11 -36 -27 -36 -6 0 -20 7 -31 15 -18
15 -18 17 25 60 24 24 45 43 47 41 2 -1 -2 -17 -8 -35z m361 24 c8 -10 11 -46
9 -112 -2 -54 0 -104 4 -111 17 -27 -25 -24 -65 4 -45 31 -59 54 -34 54 25 0
19 17 -14 40 -30 21 -34 20 -31 -12 3 -23 -6 -23 -46 2 -32 19 -47 58 -19 47
16 -6 89 39 125 77 28 29 53 33 71 11z m-163 -21 c7 -18 -17 -38 -30 -25 -9 9
1 41 14 41 5 0 12 -7 16 -16z m-758 -28 c17 -9 32 -11 42 -5 21 13 39 11 39
-6 0 -22 -42 -36 -55 -19 -8 11 -18 12 -45 4 -19 -5 -38 -10 -42 -10 -10 0 3
33 16 42 14 10 13 10 45 -6z m-349 -56 c0 -13 9 -20 28 -23 25 -4 25 -4 -5 -6
-18 0 -33 2 -33 7 0 4 -3 18 -7 31 -4 17 -3 22 5 17 7 -4 12 -16 12 -26z m546
9 c3 -6 1 -16 -5 -22 -14 -14 -15 -47 -1 -47 13 0 30 34 30 60 0 19 5 21 53
18 38 -2 52 -7 52 -18 0 -8 -9 -16 -20 -18 -24 -5 -55 -31 -55 -46 0 -6 27
-41 59 -77 66 -73 66 -89 0 -89 -32 0 -42 6 -69 40 -17 22 -36 40 -41 40 -15
0 -10 -32 8 -52 23 -26 6 -39 -52 -41 l-48 -2 -1 109 c-1 78 -5 111 -13 113
-7 3 -13 11 -13 18 0 7 6 16 13 18 23 10 96 7 103 -4z m264 -8 c20 -5 25 -13
25 -39 0 -17 7 -39 17 -48 15 -15 17 -14 34 12 14 20 15 29 6 32 -6 2 -12 8
-12 13 0 12 71 11 90 -1 12 -8 10 -14 -16 -37 -18 -15 -51 -55 -74 -88 -52
-73 -66 -85 -101 -85 -32 0 -52 21 -47 51 5 33 36 49 52 27 7 -10 18 -18 24
-18 12 0 -71 145 -89 155 -5 4 -9 13 -9 21 0 15 53 18 100 5z m-428 -18 c19
-17 23 -49 9 -72 -7 -10 -1 -23 21 -43 27 -25 30 -33 25 -65 -8 -50 -29 -67
-114 -92 -92 -27 -97 -27 -88 6 9 37 -16 204 -32 210 -7 3 -13 13 -13 23 0 14
14 22 63 33 84 20 107 20 129 0z m968 -64 c0 -5 -7 -9 -16 -9 -10 0 4 -22 38
-60 143 -163 218 -348 218 -539 0 -242 -128 -466 -322 -567 -52 -26 -62 -29
-53 -14 9 15 -1 12 -46 -11 -59 -30 -58 -17 1 15 61 33 65 41 7 16 -48 -21
-141 -38 -184 -34 -15 2 -45 5 -65 7 -21 2 -41 7 -45 10 -11 12 -23 8 -23 -7
0 -8 8 -17 18 -20 9 -3 -5 -3 -33 0 -143 16 -298 132 -371 277 -58 114 -80
298 -53 443 6 32 12 65 13 72 4 23 20 31 115 56 270 72 498 52 666 -60 180
-119 259 -343 187 -532 -25 -66 -90 -151 -143 -187 -47 -33 -45 -46 3 -17 124
77 218 255 218 409 -1 103 -54 266 -107 325 -8 9 -12 22 -8 27 3 6 9 72 11
146 l6 135 -32 32 c-33 32 -35 42 -31 118 l2 45 14 -34 c8 -18 15 -37 15 -42z
m-645 19 c27 -25 37 -68 18 -75 -7 -2 -28 12 -48 32 -33 35 -34 38 -18 51 23
17 20 18 48 -8z m412 -23 c35 -21 43 -31 43 -55 0 -18 -7 -33 -18 -39 -23 -12
-37 -3 -46 32 -4 15 -17 33 -31 39 -36 16 -55 -4 -55 -58 0 -35 5 -47 25 -60
17 -11 36 -14 55 -10 25 5 30 2 30 -14 0 -25 -29 -40 -75 -40 -71 0 -125 54
-125 125 0 29 8 45 34 71 44 44 98 46 163 9z m97 -71 c9 -3 16 -11 16 -18 0
-13 -60 -56 -78 -56 -19 0 -14 18 7 30 11 5 23 19 26 30 7 22 7 22 29 14z
m123 -44 c9 -19 9 -46 2 -105 -6 -43 -8 -89 -5 -102 8 -31 -8 -37 -46 -17 -59
29 -87 64 -53 64 25 0 17 25 -14 43 -38 22 -43 21 -39 -5 4 -29 -11 -32 -50
-8 -36 22 -38 42 -6 45 21 1 131 73 153 99 19 22 43 16 58 -14z m232 -43 c51
-13 65 -31 92 -123 41 -140 36 -324 -11 -475 -20 -61 -99 -215 -100 -194 0 6
-7 1 -15 -9 -8 -11 -15 -15 -15 -10 0 6 5 15 11 21 6 6 12 17 13 24 2 8 11 31
20 52 27 60 46 172 46 266 0 96 -32 270 -53 283 -6 4 -9 8 -5 8 5 0 -14 42
-41 94 l-49 94 32 -10 c17 -6 51 -15 75 -21z m-665 -3 c28 -41 103 -84 137
-77 22 4 34 0 48 -16 10 -11 25 -21 34 -21 9 0 19 -5 23 -11 3 -6 16 -9 28 -7
17 4 26 -2 35 -23 9 -20 30 -36 72 -55 38 -17 59 -33 59 -43 0 -10 4 -21 9
-26 18 -18 71 -134 70 -152 0 -14 -2 -15 -7 -3 -33 72 -129 171 -212 218 -36
20 -67 37 -70 37 -3 1 -36 12 -75 25 -62 22 -86 24 -215 24 -121 -1 -161 -6
-244 -27 -55 -14 -104 -23 -109 -20 -6 3 -7 1 -4 -5 10 -15 -80 -56 -125 -58
-20 0 -59 -11 -85 -24 -26 -13 -64 -31 -83 -39 -19 -9 -54 -28 -77 -43 -23
-16 -46 -28 -51 -28 -5 0 -33 -16 -62 -36 -58 -40 -72 -36 -96 23 -8 17 -20
38 -28 46 -8 8 -18 26 -21 39 -6 22 -1 27 32 42 21 10 61 28 88 41 81 39 165
75 172 75 15 0 53 45 53 62 0 17 2 17 24 3 23 -15 68 -16 82 -2 4 4 18 7 30 7
13 0 38 9 56 20 22 13 51 20 85 20 33 0 65 7 86 19 22 12 39 16 49 10 8 -4 39
-8 69 -8 30 0 72 -3 94 -6 33 -5 45 -2 70 19 38 32 39 32 59 0z"/>
<path d="M1287 1753 c-4 -3 -7 -17 -7 -30 0 -16 6 -23 18 -23 27 0 32 9 20 36
-11 25 -20 29 -31 17z"/>
<path d="M1565 1714 c-20 -50 -20 -51 20 -56 25 -3 35 0 35 9 0 17 -27 83 -34
83 -3 0 -13 -16 -21 -36z"/>
<path d="M1086 1758 c9 -51 12 -58 28 -58 21 0 31 43 16 69 -6 12 -19 21 -30
21 -16 0 -19 -5 -14 -32z"/>
<path d="M2187 1549 c-14 -8 -16 -14 -6 -25 18 -22 39 -17 39 11 0 27 -6 30
-33 14z"/>
<path d="M1290 1436 c0 -37 15 -55 32 -38 12 12 -2 64 -20 70 -8 2 -12 -9 -12
-32z"/>
<path d="M1310 1327 c0 -35 10 -57 25 -57 29 0 22 72 -8 78 -12 3 -17 -3 -17
-21z"/>
<path d="M1534 924 c8 -60 43 -123 83 -150 63 -42 133 -40 308 13 169 51 291
34 378 -54 53 -52 68 -85 77 -167 l7 -71 2 61 c1 78 -20 139 -67 187 -54 57
-105 79 -196 87 -85 8 -120 2 -281 -44 -173 -50 -257 -10 -295 142 -14 56 -24
54 -16 -4z"/>
<path d="M1481 849 c-2 -112 23 -236 64 -321 41 -85 62 -114 130 -180 81 -77
81 -55 0 26 -117 117 -159 216 -180 426 -12 119 -13 122 -14 49z"/>
<path d="M1769 286 c7 -8 21 -18 32 -21 11 -4 17 -11 14 -16 -7 -11 5 -12 22
-1 9 5 -3 16 -34 31 -32 16 -43 18 -34 7z"/>
<path d="M2241 1251 c-12 -8 -12 -12 -2 -25 19 -23 31 -20 31 9 0 27 -6 30
-29 16z"/>
<path d="M465 1479 c5 -8 47 -67 94 -132 105 -145 200 -288 200 -303 1 -6 8
-17 16 -24 13 -11 14 -8 8 21 -3 19 -10 35 -14 37 -5 2 -16 19 -25 38 -9 19
-20 34 -25 34 -5 0 -9 7 -9 15 0 8 -11 25 -25 37 -13 11 -22 25 -20 29 7 10
-176 251 -194 257 -9 3 -11 0 -6 -9z"/>
</g>
</svg>
