<svg xmlns="http://www.w3.org/2000/svg" width="24" height="24" viewBox="0 0 24 24" fill="currentColor"><path d="M22.48 6.98a12.82 12.82 0 0 0-2.8-2.9C18.49 3 16.5 3 12.01 3h-.02c-4.49 0-6.48 0-7.67 1.08-1.19 1.08-1.19 3.08-1.19 7.57v.7c0 4.49 0 6.49 1.19 7.57 1.19 1.08 3.18 1.08 7.67 1.08h.02c4.49 0 6.48 0 7.67-1.08 1.19-1.08 1.19-3.08 1.19-7.57v-.7a12.82 12.82 0 0 0-1.28-4.9zM16.5 16h-1.47s-.5-.15-.85-.53c-.35-.38-.85-1.18-.85-1.18s-.1-.25-.3-.43c-.2-.18-.4-.2-.4-.2s-.3 0-.3.43v1.36c0 .38-.18.53-.4.53h-.7s-2.1 0-4.24-2.18c-2.14-2.18-3.2-5.03-3.2-5.03s-.1-.45.3-..53h1.5s.4 0 .6.15c.2.15.3.43.3.43s.5 1.28 1.1 2.28c1.1 1.88 1.5 2.03 1.7 1.93.3-.1.3-1.03.3-1.53 0-.5.1-.9-.2-1.1-.3-.2-.7-.25-1.1-.25s-1.2-.05-1.2-.68c0-.48.4-.68.9-.68h2.3s1.3 0 1.6.3c.3.3.2.9.2 2.13v1.18s.1.2.3.3c.2.1.5 0 .9-.43.4-.43 1-1.33 1.8-2.68.3-.5.6-.9.6-.9s.1-.2.3-.35c.2-.15.5-.15.5-.15h2.3s.5 0 .6.2c.1.2.1.5 0 .9 0 0-1 2.33-2.2 3.83-.6.75-.9 1.13-.9 1.13s-.4.5.2.93c.6.43 1.4.38 1.4.38h.9s.4 0 .6.2c.2.2.1.5 0 .8-.1.3-1.1 1-1.1 1z"/></svg>